<svg width="150" height="32" viewBox="0 0 150 32" fill="none" xmlns="http://www.w3.org/2000/svg">
<path d="M0 26V10.0039H3.99414V18.002H7.99805V10.0039H11.9922V26H7.99805V22.0059H3.99414V26H0ZM3.99414 10.0039V6H7.99805V10.0039H3.99414ZM16.1133 26V6H20.1074V22.0059H24.1113V26H16.1133ZM28.1055 26V22.0059H24.1113V18.002H28.1055V6H32.1094V26H28.1055ZM24.1113 6V2.00586H28.1055V6H24.1113ZM40.2246 26V10.0039H36.2305V6H48.2227V10.0039H44.2285V26H40.2246ZM52.3438 26V6H56.3379V22.0059H60.3418V26H52.3438ZM64.3359 26V22.0059H60.3418V18.002H64.3359V6H68.3398V26H64.3359Z" fill="#1D2027"/>
<rect x="73" width="77" height="32" rx="4" fill="#1D2027"/>
<path d="M77 26V22.0059H80.9941V26H77ZM84.998 26V22.0059H88.9922V26H84.998ZM80.9941 22.0059V18.002H84.998V22.0059H80.9941ZM77 18.002V6H80.9941V18.002H77ZM84.998 18.002V6H88.9922V18.002H84.998ZM93.1133 26V10.0039H97.1074V18.002H101.111V10.0039H105.105V26H101.111V22.0059H97.1074V26H93.1133ZM97.1074 10.0039V6H101.111V10.0039H97.1074ZM117.225 24.0078C117.771 24.0078 118.24 23.8092 118.631 23.4121C119.028 23.028 119.227 22.5592 119.227 22.0059C119.227 21.4525 119.028 20.9805 118.631 20.5898C118.24 20.1992 117.771 20.0039 117.225 20.0039C116.671 20.0039 116.199 20.1992 115.809 20.5898C115.418 20.9805 115.223 21.4525 115.223 22.0059C115.223 22.5592 115.418 23.028 115.809 23.4121C116.199 23.8092 116.671 24.0078 117.225 24.0078ZM117.225 26C116.118 26 115.174 25.6094 114.393 24.8281C113.611 24.0469 113.221 23.1061 113.221 22.0059C113.221 20.8991 113.611 19.9551 114.393 19.1738C115.174 18.3926 116.118 18.002 117.225 18.002C118.325 18.002 119.266 18.3926 120.047 19.1738C120.828 19.9551 121.219 20.8991 121.219 22.0059C121.219 23.1061 120.828 24.0469 120.047 24.8281C119.266 25.6094 118.325 26 117.225 26ZM109.227 26V6H121.219V10.0039H113.221V26H109.227ZM125.34 26V10.0039H129.334V18.002H133.338V10.0039H137.332V26H133.338V22.0059H129.334V26H125.34ZM129.334 10.0039V6H133.338V10.0039H129.334Z" fill="white"/>
</svg>
